<svg xmlns="http://www.w3.org/2000/svg" xmlns:xlink="http://www.w3.org/1999/xlink" viewBox="0 0 26.98 26.98"><defs><style>.cls-1{fill:none;}.cls-2{clip-path:url(#clip-path);}.cls-3{fill:#004970;}</style><clipPath id="clip-path"><rect class="cls-1" width="26.97" height="26.98"/></clipPath></defs><title>Asset 2</title><g id="Layer_2" data-name="Layer 2"><g id="_5" data-name="5"><g class="cls-2"><path class="cls-3" d="M10,23.53A3.44,3.44,0,1,1,13.49,27,3.44,3.44,0,0,1,10,23.53"/><path class="cls-3" d="M20.1,13.49a3.44,3.44,0,1,1,3.44,3.44,3.44,3.44,0,0,1-3.44-3.44"/><path class="cls-3" d="M0,23.53A3.44,3.44,0,1,1,3.44,27,3.44,3.44,0,0,1,0,23.53"/><path class="cls-3" d="M10,13.49a3.44,3.44,0,1,1,3.44,3.44A3.44,3.44,0,0,1,10,13.49"/><path class="cls-3" d="M20.1,3.44a3.44,3.44,0,1,1,3.44,3.44A3.44,3.44,0,0,1,20.1,3.44"/><path class="cls-3" d="M0,13.49a3.44,3.44,0,1,1,3.44,3.44A3.44,3.44,0,0,1,0,13.49"/><path class="cls-3" d="M10,3.44a3.44,3.44,0,1,1,3.44,3.44A3.44,3.44,0,0,1,10,3.44"/></g></g></g></svg>